,
Brought to you by  http://www.scenetime.com/signup.php
 
 Hottest scene tracker on the net !!!   
 
No fake torrents from scenebalance 
shame on those who comment fake before downloading my torrents

    seed back for speed


 



...................................NFO:.................................................
                   _..._                          _..._    
                .-'_..._''.                    .-'_..._''.  
        .--.  .' .'      '.\                 .' .'      '.\
        |__| / .'                           / .'            
    .|  .--.. '               .|           . '              
  .' |_ |  || |             .' |_     __   | |              
.'     ||  || |           .'     | .:--.'. | |              
'--.  .-'|  |. '          '--.  .-'/ |   \ |. '              
  |  |  |  | \ '.          .|  |  `" __ | | \ '.          .
  |  |  |__|  '. `._____.-'/|  |   .'.''| |  '. `._____.-'/
  |  '.'        `-.______ / |  '.'/ /   | |_   `-.______ /  
  |   /                  `  |   / \ \._,\ '/            `  
  `'-'                      `'-'   `--'  `"                

_____ _____  ____   ____  ____  __  _  _____  ____
| ()_)| () )| ===| (_ (_`| ===||  \| ||_   _|(_ (_`
|_|   |_|\_\|____|.__)__)|____||_|\__|  |_| .__)__)



Interview 2007 DVDRip TiCTaC


 
http://www.imdb.com/title/tt0480269/


Everyone wants a piece of a celebrity. Pierre is a political reporter, assigned to write a fluff piece on Katya, a blond who acts in slasher movies and a Fox show about single girls in the city. The interview, at a restaurant, goes badly: she's late, he's unprepared and rude. After leaving, he bangs his head in a fender bender and she takes him to her loft to clean the wound. Lubricated by alcohol and competitive natures, the interview resumes. She takes phone calls from her fianc, Pierre reads her diary on her computer. They discuss wounds, he expresses concern, father-daughter feelings arise. Out come camcorders to tape their darkest secrets. Is friendship or more in the offing?


    6.9/10  
Users: (8,427 votes) 56 reviews | Critics: 111 reviews Metascore: 64/100 (based on 29 reviews from Metacritic.com)

After falling out with his editor, a fading political journalist is forced to interview America's most popular soap actress.

Director:
Steve Buscemi
Writers:
Steve Buscemi (screenplay), Theodor Holman (original screenplay), and 1 more credit 


Cast

Steve Buscemi 	Steve Buscemi 	... 	
Pierre Peders
Sienna Miller 	Sienna Miller 	... 	
Katya
Michael Buscemi 	Michael Buscemi 	... 	
Robert Peders
Tara Elders 	Tara Elders 	... 	
Maggie
David Schechter 	David Schechter 	... 	
Maitre'd
Molly Griffith 	Molly Griffith 	... 	
Waitress
Elizabeth Bracco 	Elizabeth Bracco 	... 	
Woman at Restaurant
James Villemaire 	James Villemaire 	... 	
Man at Restaurant
Jackson Loo 	Jackson Loo 	... 	
Fan at Restaurant
Craig muMs Grant 	Craig muMs Grant 	... 	
Cab Driver (as muMs)
Doc Dougherty 	Doc Dougherty 	... 	
Truck Driver
Donna Hanover 	Donna Hanover 	... 	
Commentator
Wayne Wilcox 	Wayne Wilcox 	... 	
Hunky Actor
Danny Schechter 	Danny Schechter 	... 	
Political Pundit
Philippe Vonlanthen 	Philippe Vonlanthen 	... 	
Autograph Seeker #1
Full cast and crew 
Edit
Storyline

 

Genres:
Drama

Language:
English
Release Date:
10 May 2007

Runtime:
84 min

Color


General
Complete name                    : G:\Interview 2007 DVDRip TiCTaC\Interview 2007 DVDRip TiCTaC.avi
Format                           : AVI
Format/Info                      : Audio Video Interleave
File size                        : 985 MiB
Duration                         : 1h 20mn
Overall bit rate                 : 1 701 Kbps
Writing application              : Lavf52.13.0
Writing library                  : VirtualDub build 32842/release

Video
ID                               : 0
Format                           : MPEG-4 Visual
Format profile                   : Simple@L1
Format settings, BVOP            : No
Format settings, QPel            : No
Format settings, GMC             : No warppoints
Format settings, Matrix          : Default (H.263)
Codec ID                         : XVID
Codec ID/Hint                    : XviD
Duration                         : 1h 20mn
Bit rate                         : 1 497 Kbps
Width                            : 720 pixels
Height                           : 432 pixels
Display aspect ratio             : 16:9
Frame rate                       : 25.000 fps
Resolution                       : 8 bits
Colorimetry                      : 4:2:0
Scan type                        : Progressive
Bits/(Pixel*Frame)               : 0.193
Stream size                      : 866 MiB (88%)
Writing library                  : Lavc51.54.0

Audio
ID                               : 1
Format                           : MPEG Audio
Format version                   : Version 1
Format profile                   : Layer 3
Mode                             : Joint stereo
Format_Settings_ModeExtension    : MS Stereo
Codec ID                         : 55
Codec ID/Hint                    : MP3
Duration                         : 1h 20mn
Bit rate mode                    : Constant
Bit rate                         : 192 Kbps
Channel(s)                       : 2 channels
Sampling rate                    : 44.1 KHz
Stream size                      : 111 MiB (11%)
Alignment                        : Aligned on interleaves
Interleave, duration             : 26 ms (0.65 video frame)
Interleave, preload duration     : 522 ms
Writing library                  : LAME3.98 (beta)